<svg xmlns="http://www.w3.org/2000/svg" width="82.41844260692596" height="77.68500030040741" fill="none" viewBox="-0.5560938715934753 3.5976560711860657 82.41844260692596 77.68500030040741">
<!-- SVG created with Arrow, by QuiverAI (https://quiver.ai) -->
  <path d="m11.64 41.99c-6.45 10.18-9.7 23.97-9.1 37.33h40.41l6.74-19.93-9.51-17.4h-28.54z" fill="#FDB71A"/>
  <path d="m37.5 47.5c0.41 4.3 4.88 10.13 7.24 12.19l1.12-2.73-5.68-10.07-2.68 0.61z" fill="#FAAE17"/>
  <path d="m13.15 37.52c-1 1.42-1.59 3.29-1.5 4.35 1.17 2.81 8.69 8.24 17.87 8.24 4.45 0 8.23-1.37 10.29-2.56v-3.96l-26.66-6.07z" fill="#F54116"/>
  <path d="m45.88 13.32c3.63 0 6.57 4.64 7.45 9.29l-5.69 7.84-1.76-17.13z" fill="#FF5819"/>
  <path d="m30.68 5.56c-4.43 0-8.36 1.53-10.6 3.42-4.36 4.78-5.26 19.54-8.11 26.28 1.3 5.28 10.73 10.45 19.75 10.45 3.1 0 5.63-0.64 7.55-1.64 2.14-4.15 4.92-7.81 8.08-10.74 0.59-3.69 0.92-7.96 0.92-11.48 0-10.41-8.73-16.29-17.59-16.29z" fill="#FDBD20"/>
  <path d="m18.39 8.77c-3.84 0-7.96 3.82-11.75 9.31-3.06 4.43-5.23 8.76-5.23 12.55 0 4.88 2.84 7.52 5.82 7.52 3.62 0 6.04-3.61 7.69-10 1.59-6.11 1.86-13.47 5.21-18.26 0.39-0.76-0.36-1.12-1.74-1.12z" fill="#FF5819"/>
  <path d="m33.43 25.29c-1.59 0-2.3 0.83-2.3 2.1 0 1.86 1.74 5.01 4.04 5.01 2.38 0 4.98-1.64 4.98-3.41 0-2.14-4.2-3.7-6.72-3.7z" fill="#0F1F57"/>
  <path d="m25.08 31.44c0 2.62 2.5 4.41 4.93 4.41 1.75 0 3.41-0.95 3.93-2.29l0.5-1.77-0.79 2.37c-0.18 2.09 1.71 3.6 3.7 3.6 1.62 0 3.45-1.15 3.62-1.95" stroke="#0F1F57" stroke-linecap="round" stroke-linejoin="round" stroke-width="1.415"/>
  <path d="m25.71 19.78c0 1.33 1.32 2.28 2.62 2.28 0.98 0 2.05-0.65 2.17-1.08" stroke="#0F1F57" stroke-linecap="round" stroke-linejoin="round" stroke-width="1.351"/>
  <path d="m40.5 23.42c0 1.32 1.27 2.23 2.48 2.23 0.91 0 1.8-0.61 1.85-0.93" stroke="#0F1F57" stroke-linecap="round" stroke-linejoin="round" stroke-width="1.351"/>
  <path d="m70.4 59.03c-2.34-1.22-19.94-2.38-25.65-0.29-2.14 5.56-2.49 13.42-1.8 20.58h36.95c-0.35-7.82-4.61-15.41-9.5-20.29z" fill="#314591"/>
  <path d="m44.75 57.17c-0.44 0.68-0.6 1.63-0.52 2.25 2.12 2.5 7.04 4.42 12.9 4.42 6.38 0 11.77-2.52 13.47-4.55 0.03-0.6-0.17-1.15-0.56-1.48l-25.29-0.64z" fill="#242157"/>
  <path d="m74.86 28.69c-2.61 0-8.3 3.16-10.12 4.7l9.38 12.68c1.71-4.37 2.69-9.94 2.69-14.01 0-2.26-0.4-3.37-1.95-3.37z" fill="#334794"/>
  <path d="m73.33 32.51c-0.96 0.1-4.48 2.17-5.55 3l4.58 5.64c1.03-2.66 1.47-6.51 1.31-8.37-0.01-0.18-0.17-0.29-0.34-0.27z" fill="#FF7220"/>
  <path d="m53.65 21.63c-2.2 0-7.17 9.64-8.06 12.66l13.89-2.6c-1.11-4.31-4.01-10.06-5.83-10.06z" fill="#334794"/>
  <path d="m53.17 25.78c-0.59 0.08-3.49 5.4-3.96 6.6l6.4-1.14c-0.42-2.04-1.89-5.51-2.44-5.46z" fill="#FF6D20"/>
  <path d="m55.84 31.19c-9.83 0-17.23 7.52-17.23 15.15 0 9.22 8.84 14.94 20.14 14.94 9.53 0 15.48-5.1 15.48-13.11 0-9.95-8.73-16.98-18.39-16.98z" fill="#364B98"/>
  <path d="m47.4 39.76c-0.08 0.94 1.04 2.12 2.53 2.12 0.82 0 1.57-0.53 1.66-0.64" stroke="#0C1947" stroke-linecap="round" stroke-linejoin="round" stroke-width="1.228"/>
  <path d="m61.32 44.48c0.06 1.21 1.23 2.19 2.67 2.19 0.98 0 1.8-0.51 1.82-0.57" stroke="#0C1947" stroke-linecap="round" stroke-linejoin="round" stroke-width="1.228"/>
  <path d="m42.07 41.89c1.49 0.84 2.96 1.72 4.15 2.48" stroke="#0C1947" stroke-linecap="round" stroke-linejoin="round" stroke-width="1.133"/>
  <path d="m40.92 46.35c1.69 0.08 3.41 0.19 4.57 0.32" stroke="#0C1947" stroke-linecap="round" stroke-linejoin="round" stroke-width="1.133"/>
  <path d="m63.8 50.36c2.19 0.23 4.52 0.63 5.83 1.04" stroke="#0C1947" stroke-linecap="round" stroke-linejoin="round" stroke-width="1.133"/>
  <path d="m63.02 52.7c1.59 0.98 3.31 2.17 4.42 2.97" stroke="#0C1947" stroke-linecap="round" stroke-linejoin="round" stroke-width="1.133"/>
  <path d="m48.28 49.13c0.1 1.17 1.39 2.18 2.87 2.18 1.44 0 2.39-1 2.5-2.14-0.17 0.44-0.25 0.88-0.25 1.3 0 1.69 1.56 2.76 3.09 2.76 1 0 1.92-0.55 1.98-0.67" stroke="#0C1947" stroke-linecap="round" stroke-linejoin="round" stroke-width="1.228"/>
  <path d="m53.09 44.44c-0.66 0-0.91 0.35-0.91 0.95 0 1.33 1.02 3.03 2.16 3.03 1.09 0 3.04-1.24 3.04-2.06 0-0.89-3.26-1.92-4.29-1.92z" fill="#FF6F20"/>
  <ellipse cx="28.96" cy="54.92" rx="5.829" ry="4.14" fill="#DA810D"/>
  <circle cx="28.96" cy="50.67" r="2.316" fill="#FED928"/>
  <circle cx="29.04" cy="50.34" r="1.362" fill="#DA7D08"/>
  <path d="m29.01 47.14c-0.57 0-0.86 0.33-0.86 0.9v1.61c0 0.59 0.4 0.94 0.96 0.94s0.88-0.38 0.88-0.94v-1.61c0-0.6-0.38-0.9-0.98-0.9z" fill="#FCC018"/>
  <path d="m28.99 47.65c-0.21 0-0.27 0.12-0.27 0.33v1.17c0 0.22 0.11 0.34 0.33 0.34s0.3-0.12 0.3-0.34v-1.17c0-0.23-0.12-0.33-0.36-0.33z" fill="#FFF165"/>
  <path d="m31.09 51.36c-2.16-0.02-4.2-0.1-4.85-0.1-1.79 0-2.89 1.35-2.89 3.02 0 2.27 2.51 3.77 5.61 3.77 3.24 0 5.51-1.66 5.51-3.57 0-1.97-1.29-3.1-3.38-3.12z" fill="#FEDD32"/>
  <path d="m31.09 51.36c-2.16-0.02-4.2-0.1-4.85-0.1-1.79 0-2.89 1.35-2.89 3.02 0 1.19 0.69 2.17 1.85 2.83l5.89-5.75z" fill="#FED928"/>
  <path d="m26.65 51.56c-1.76-0.05-2.78 1.09-2.83 2.68" stroke="#FFF280" stroke-linecap="round" stroke-linejoin="round" stroke-width=".2808"/>
  <path d="m31.2 51.54c1.78 0.03 2.84 1.19 2.77 2.84" stroke="#FFF280" stroke-linecap="round" stroke-linejoin="round" stroke-width=".2808"/>
  <path d="m63.39 23.31c-1.72-1.92-3.31-5-3.31-7.25 0-1.84 1.05-2.88 2.28-2.88 1.41 0 2.52 1.29 2.74 2.57 0.62-0.94 1.74-1.5 2.77-1.5 1.34 0 2.28 0.91 2.28 2.25 0 2.75-3.94 5.44-6.76 6.81z" fill="#FF5819"/>
  <circle cx="52.72" cy="66.88" r="2.781" fill="#283679"/>
  <circle cx="52.7" cy="65.77" r="3.186" fill="#FDBD20"/>
  <path d="m49.55 65.64c-0.06 1.91 1.43 3.25 3.22 3.25 1.7 0 2.99-1.16 3.13-2.52-2.07-0.57-4.22-0.84-6.35-0.73z" fill="#E99713"/>
  <path d="m49.71 65.56c-0.04 1.64 1.3 2.89 2.97 2.89 1.56 0 2.76-1.02 2.97-2.31-2-0.45-3.98-0.65-5.94-0.58z" fill="#FDBD20"/>
  <path d="m52.65 62.39c-1.75 0-3 1.14-3.17 2.51-0.31 0.1-0.42 0.33-0.42 0.51 0 0.25 0.19 0.42 0.41 0.42 2.22-0.19 4.48 0.21 6.14 0.82 0.27 0 0.46-0.17 0.46-0.43 0-0.18-0.07-0.34-0.2-0.44 0.01-1.9-1.35-3.39-3.22-3.39z" fill="#FECF18"/>
  <path d="m52.78 61.45c-0.21 0-0.34 0.1-0.34 0.33l-0.05 0.6 1.38 0.13 0.03-0.52c0.02-0.36-0.57-0.54-1.02-0.54z" fill="#E48F10"/>
  <ellipse cx="53.1" cy="61.81" rx=".7452" ry=".424" fill="#FDBD20"/>
  <path d="m52.75 63.25c-0.45 0-0.83 0.4-0.83 0.73 0 0.28 0.31 0.41 0.69 0.41 0.41 0 0.58-0.16 0.58-0.46 0-0.37-0.19-0.68-0.44-0.68z" fill="#FFF380"/>
  <path d="m49.5 65.45c2.19-0.2 4.72 0.19 6.33 0.97" stroke="#E89012" stroke-linecap="round" stroke-linejoin="round" stroke-width=".3545"/>
  <circle cx="52.24" cy="67.01" r=".6661" fill="#161D4D"/>
  <path d="m52.21 67.39c-0.26 0.36-0.31 0.93-0.23 1.3h0.56c-0.03-0.43 0.03-0.91 0.16-1.3h-0.49z" fill="#161D4D"/>
</svg>